HIERARCHY
ROOT Hips
{
	OFFSET 0.00000 0.00000 0.00000
	CHANNELS 6 Xposition Yposition Zposition Zrotation Yrotation Xrotation 
	JOINT LHipJoint
	{
		OFFSET 0 0 0
		CHANNELS 3 Zrotation Yrotation Xrotation
		JOINT LeftUpLeg
		{
			OFFSET 1.56857 -1.73443 1.15205
			CHANNELS 3 Zrotation Yrotation Xrotation
			JOINT LeftLeg
			{
				OFFSET 2.39362 -6.57643 0.00000
				CHANNELS 3 Zrotation Yrotation Xrotation
				JOINT LeftFoot
				{
					OFFSET 2.50952 -6.89485 0.00000
					CHANNELS 3 Zrotation Yrotation Xrotation
					JOINT LeftToeBase
					{
						OFFSET 0.17171 -0.47178 1.88682
						CHANNELS 3 Zrotation Yrotation Xrotation
						End Site
						{
							OFFSET 0.00000 -0.00000 0.98146
						}
					}
				}
			}
		}
	}
	JOINT RHipJoint
	{
		OFFSET 0 0 0
		CHANNELS 3 Zrotation Yrotation Xrotation
		JOINT RightUpLeg
		{
			OFFSET -1.28153 -1.73443 1.15205
			CHANNELS 3 Zrotation Yrotation Xrotation
			JOINT RightLeg
			{
				OFFSET -2.26861 -6.23296 0.00000
				CHANNELS 3 Zrotation Yrotation Xrotation
				JOINT RightFoot
				{
					OFFSET -2.54143 -6.98254 0.00000
					CHANNELS 3 Zrotation Yrotation Xrotation
					JOINT RightToeBase
					{
						OFFSET -0.23309 -0.64041 1.93119
						CHANNELS 3 Zrotation Yrotation Xrotation
						End Site
						{
							OFFSET -0.00000 -0.00000 1.02013
						}
					}
				}
			}
		}
	}
	JOINT LowerBack
	{
		OFFSET 0 0 0
		CHANNELS 3 Zrotation Yrotation Xrotation
		JOINT Spine
		{
			OFFSET -0.07096 2.10460 -0.27878
			CHANNELS 3 Zrotation Yrotation Xrotation
			JOINT Spine1
			{
				OFFSET -0.00826 2.13662 -0.08279
				CHANNELS 3 Zrotation Yrotation Xrotation
				JOINT Neck
				{
					OFFSET 0 0 0
					CHANNELS 3 Zrotation Yrotation Xrotation
					JOINT Neck1
					{
						OFFSET 0.03239 1.77799 0.24435
						CHANNELS 3 Zrotation Yrotation Xrotation
						JOINT Head
						{
							OFFSET 0.01026 1.74194 -0.49664
							CHANNELS 3 Zrotation Yrotation Xrotation
							End Site
							{
								OFFSET 0.00170 1.83057 -0.19653
							}
						}
					}
				}
				JOINT LeftShoulder
				{
					OFFSET 0 0 0
					CHANNELS 3 Zrotation Yrotation Xrotation
					JOINT LeftArm
					{
						OFFSET 3.19178 1.35907 -0.31412
						CHANNELS 3 Zrotation Yrotation Xrotation
						JOINT LeftForeArm
						{
							OFFSET 4.85247 -0.00000 -0.00000
							CHANNELS 3 Zrotation Yrotation Xrotation
							JOINT LeftHand
							{
								OFFSET 3.55584 -0.00000 0.00000
								CHANNELS 3 Zrotation Yrotation Xrotation
								JOINT LeftFingerBase
								{
									OFFSET 0 0 0
									CHANNELS 3 Zrotation Yrotation Xrotation
									JOINT LeftHandIndex1
									{
										OFFSET 0.69320 -0.00000 0.00000
										CHANNELS 3 Zrotation Yrotation Xrotation
										End Site
										{
											OFFSET 0.55888 -0.00000 0.00000
										}
									}
								}
								JOINT LThumb
								{
									OFFSET 0 0 0
									CHANNELS 3 Zrotation Yrotation Xrotation
									End Site
									{
										OFFSET 0.56741 -0.00000 0.56741
									}
								}
							}
						}
					}
				}
				JOINT RightShoulder
				{
					OFFSET 0 0 0
					CHANNELS 3 Zrotation Yrotation Xrotation
					JOINT RightArm
					{
						OFFSET -3.28999 1.24191 -0.26899
						CHANNELS 3 Zrotation Yrotation Xrotation
						JOINT RightForeArm
						{
							OFFSET -4.64462 -0.00000 0.00000
							CHANNELS 3 Zrotation Yrotation Xrotation
							JOINT RightHand
							{
								OFFSET -3.40703 -0.00000 0.00000
								CHANNELS 3 Zrotation Yrotation Xrotation
								JOINT RightFingerBase
								{
									OFFSET 0 0 0
									CHANNELS 3 Zrotation Yrotation Xrotation
									JOINT RightHandIndex1
									{
										OFFSET -0.61958 -0.00000 0.00000
										CHANNELS 3 Zrotation Yrotation Xrotation
										End Site
										{
											OFFSET -0.49952 -0.00000 0.00000
										}
									}
								}
								JOINT RThumb
								{
									OFFSET 0 0 0
									CHANNELS 3 Zrotation Yrotation Xrotation
									End Site
									{
										OFFSET -0.50715 -0.00000 0.50715
									}
								}
							}
						}
					}
				}
			}
		}
	}
}
MOTION
Frames: 9
Frame Time: .0083333
-34.6963 17.1253 7.6422 0 0 0 0 0 0 -21 0 0 0 0 0 0 0 0 0 0 0 0 0 0 21 0 0 0 0 0 0 0 0 0 0 0 0 0 0 0 0 0 0 0 0 0 0 -16 0 0 21 0 0 11 0 0 0 -8 0 0 0 0 0 0 0 0 0 0 0 0 0 0 0 0 0 0 0 0 8 0 0 0 0 0 0 0 0 0 0 0 0 0 0 0 0 0
-34.6963 17.1253 7.6422 -11.4903 74.1684 -5.0720 0.0000 0.0000 0.0000 11.9218 8.2480 -0.3202 6.5763 14.9645 47.2532 -0.1246 10.7375 5.3974 0.2048 2.9136 8.0384 0.0000 0.0000 0.0000 6.2193 -2.6932 -35.8752 -5.4066 -13.8275 42.5509 -0.2094 -1.6092 -9.3880 -0.2503 -3.2192 8.8895 -14.7210 -3.9210 23.0540 -9.4586 -7.6098 9.2386 -0.3333 -3.4884 -1.8136 5.9008 12.6714 -19.4511 -1.2588 15.9136 13.8056 0.6934 7.7417 7.9607 -0.0000 0.0000 0.0000 -71.8493 -32.6870 66.6677 72.8923 -58.8647 -45.2408 -0.0000 -0.0000 7.0565 32.9632 -33.2209 -19.5596 -7.1250 0.0000 -0.0000 0.3525 -7.9936 -0.3981 -0.0000 0.0000 0.0000 26.8950 -12.5498 -40.9076 -27.1645 38.3356 -9.6010 0.0000 -0.0000 -41.5002 -34.3933 -31.2238 19.5375 7.1250 -0.0000 -0.0000 -3.9342 -66.2416 2.0171
-34.6100 17.0232 7.8522 -9.6982 73.6027 -4.3176 0.0000 0.0000 0.0000 11.0005 8.4805 0.6680 7.8026 15.9721 51.8485 0.2011 5.3788 8.2732 0.4316 -4.2160 -11.6852 0.0000 0.0000 0.0000 7.0594 -3.9181 -34.9442 -5.2319 -13.6403 41.8151 -0.1674 -1.9167 -8.6811 -0.2704 -3.3448 9.2403 -15.5551 -3.6209 23.2698 -9.7587 -7.3583 9.4994 -0.2882 -3.3770 -1.5526 5.7660 12.8037 -19.3881 -1.1941 16.1218 13.7280 0.7527 7.8419 7.9128 -0.0000 -0.0000 0.0000 -71.3927 -31.8864 64.0624 75.3550 -59.1739 -47.3522 -0.0000 -0.0000 5.5850 34.8970 -34.0203 -21.3187 -7.1250 0.0000 -0.0000 1.2053 -9.4675 -1.3875 -0.0000 -0.0000 0.0000 23.1858 -10.1864 -42.3520 -27.6075 38.7524 -9.8771 0.0000 -0.0000 -40.6460 -34.2047 -30.4925 19.0297 7.1250 -0.0000 -0.0000 -3.9517 -65.3909 1.9486
-34.5212 16.9087 8.0612 -7.8617 73.0274 -3.5220 0.0000 0.0000 0.0000 10.0176 8.8460 1.5955 9.1093 16.8775 56.4673 0.2053 0.6629 8.3486 1.0082 -6.3891 -17.9175 0.0000 0.0000 0.0000 7.7300 -5.0548 -33.7497 -5.0062 -13.3908 40.8495 -0.1352 -2.2121 -8.1295 -0.5098 -4.5766 12.7048 -16.2660 -2.9826 24.3566 -9.8589 -6.9918 9.1540 -0.0185 -3.1313 -2.4273 5.3765 12.5830 -19.4367 -0.9570 15.9072 14.3867 0.8792 7.7331 8.0847 0.0000 0.0000 0.0000 -71.9185 -30.3161 62.5137 77.6181 -59.4127 -49.2981 -0.0000 -0.0000 4.5093 36.7731 -34.6234 -23.0079 -7.1250 0.0000 -0.0000 2.0493 -10.7578 -2.3971 0.0000 0.0000 0.0000 19.1424 -9.1893 -42.7734 -28.1517 39.2555 -10.2195 0.0000 -0.0000 -40.6616 -33.7943 -29.3082 18.1402 7.1250 -0.0000 -0.0000 -3.8136 -63.9799 1.7553
-34.4313 16.7830 8.2738 -7.7168 72.3798 -4.3695 0.0000 0.0000 0.0000 9.7201 9.2861 2.5955 10.4569 17.6589 61.0047 0.2095 -2.1546 9.7160 1.0474 -6.5081 -18.2660 0.0000 0.0000 0.0000 8.9496 -5.9714 -32.2309 -4.7682 -13.1179 39.8115 -0.1393 -2.2394 -8.2458 -0.5553 -4.7734 13.2634 -16.4604 -2.5839 24.6308 -10.1406 -6.5596 9.2504 -0.3169 -2.9053 -2.5019 5.6342 12.5749 -19.2011 -0.9665 15.8540 14.5244 0.8262 7.7227 8.1134 0.0000 0.0000 0.0000 -71.3972 -29.3336 60.2575 79.3599 -59.5679 -50.7988 -0.0000 -0.0000 3.3224 38.5859 -34.8026 -24.4843 -7.1250 0.0000 -0.0000 2.9551 -11.6157 -3.4937 0.0000 0.0000 0.0000 15.6190 -7.6345 -43.3870 -28.6398 39.6986 -10.5299 0.0000 -0.0000 -40.6145 -33.5119 -28.5100 17.5401 7.1250 -0.0000 -0.0000 -3.7020 -63.0261 1.6213
-34.3439 16.6482 8.4886 -8.2942 71.7335 -5.9280 0.0000 0.0000 0.0000 9.7412 9.8496 3.5195 11.8333 18.3193 65.4594 0.1639 -4.7535 10.8677 1.4967 -7.7280 -21.8909 0.0000 0.0000 0.0000 10.3814 -6.6797 -30.4739 -4.6053 -12.9250 39.0884 -0.3312 -2.2053 -11.9055 -0.3695 -3.9043 10.8075 -16.3110 -2.1971 25.1163 -10.4462 -6.1618 9.1898 -0.7989 -2.6695 -2.9081 6.1328 12.6080 -18.6968 -0.9440 15.8110 14.6403 0.7351 7.7393 8.1076 -0.0000 -0.0000 0.0000 -71.3042 -27.9578 57.9437 81.3610 -59.7161 -52.5255 -0.0000 -0.0000 2.8426 39.4842 -34.7442 -25.1518 -7.1250 0.0000 -0.0000 3.4419 -11.8978 -4.0842 -0.0000 -0.0000 0.0000 12.1923 -5.9908 -43.5657 -29.0706 40.0833 -10.8061 0.0000 -0.0000 -40.3141 -33.8691 -28.4374 17.7249 7.1250 -0.0000 -0.0000 -4.1890 -63.0455 1.8368
-34.2669 16.5147 8.7041 -8.5993 71.1178 -7.4458 0.0000 0.0000 0.0000 9.7134 10.3615 4.5977 13.2685 18.8770 69.9573 0.1385 -6.7911 12.5059 0.8008 -5.7114 -15.9493 0.0000 0.0000 0.0000 11.5773 -6.9821 -28.2141 -4.5088 -12.8083 38.6551 -0.6542 -1.9413 -16.1030 -0.0000 0.0050 -0.0138 -16.2665 -1.6811 25.9610 -10.7088 -5.7022 9.1137 -1.1944 -2.3920 -3.4874 6.6002 12.5528 -18.0789 -0.9701 15.6736 14.6557 0.6085 7.7084 8.0474 0.0000 0.0000 0.0000 -70.9137 -26.6117 55.7949 83.4637 -59.8379 -54.3425 -0.0000 -0.0000 2.0354 39.9996 -34.2800 -25.2957 -7.1250 0.0000 -0.0000 3.8431 -11.6007 -4.5466 0.0000 0.0000 0.0000 8.6503 -4.2126 -43.6577 -29.2736 40.2626 -10.9371 0.0000 -0.0000 -39.6990 -34.3988 -28.6249 18.1602 7.1250 -0.0000 -0.0000 -4.8290 -63.4000 2.1582
-34.1984 16.3467 8.9074 -9.5006 70.7398 -8.7334 0.0000 0.0000 0.0000 9.7057 10.6549 4.5435 14.7153 19.3168 74.3775 -0.0362 -9.9348 13.5391 0.8199 -5.7777 -16.1409 0.0000 0.0000 0.0000 12.6639 -6.7272 -26.9602 -4.5473 -12.8551 38.8283 -0.9108 0.1257 -18.0009 -0.0205 -0.9253 2.5433 -15.6850 -1.4358 26.0475 -10.9071 -5.3410 8.9005 -1.8079 -2.1846 -3.8997 6.8564 12.3820 -17.4196 -0.8655 15.4134 14.6086 0.5288 7.6234 7.9261 0.0000 -0.0000 0.0000 -70.6830 -25.2056 53.7758 85.0855 -59.9085 -55.7452 -0.0000 -0.0000 1.2581 40.3614 -33.7213 -25.2592 -7.1250 0.0000 -0.0000 4.1908 -11.1395 -4.9334 0.0000 -0.0000 0.0000 4.9265 -2.4106 -43.6489 -29.3266 40.3092 -10.9714 0.0000 -0.0000 -38.9213 -34.6253 -29.0477 18.5346 7.1250 -0.0000 -0.0000 -5.0065 -63.9298 2.2998
-34.1387 16.1767 9.1052 -10.7386 70.4198 -10.4326 0.0000 0.0000 0.0000 9.7587 10.8673 4.4443 16.1473 19.6403 78.6702 -0.4448 -14.6958 14.8922 0.9665 -6.2592 -17.5384 0.0000 0.0000 0.0000 13.9435 -5.5087 -26.0956 -4.8150 -13.1724 40.0171 -1.2480 0.4558 -20.9831 -0.0110 0.6777 -1.8623 -15.0163 -1.1556 26.4532 -10.9880 -4.9845 8.6592 -2.3366 -1.9752 -4.4894 6.7301 12.1638 -16.7651 -0.5216 15.1380 14.4605 0.5696 7.5350 7.7202 0.0000 -0.0000 0.0000 -70.7998 -24.1181 51.6942 85.6497 -59.9284 -56.2334 -0.0000 -0.0000 0.8010 40.6535 -33.0306 -25.0833 -7.1250 0.0000 -0.0000 4.5381 -10.5037 -5.3045 0.0000 -0.0000 0.0000 1.0835 -0.4827 -43.8845 -29.0749 40.0872 -10.8089 0.0000 -0.0000 -38.6186 -34.7447 -29.2592 18.7266 7.1250 -0.0000 -0.0000 -5.1039 -64.1968 2.3764
